<svg xmlns="http://www.w3.org/2000/svg" xmlns:xlink="http://www.w3.org/1999/xlink" width="308" zoomAndPan="magnify" viewBox="0 0 230.87999 197.249993" height="263" preserveAspectRatio="xMidYMid meet" version="1.0"><path fill="#ffdd50" d="M 151.957031 91.632812 C 152.160156 94.066406 150.753906 96.808594 148.9375 98.144531 C 143.828125 101.949219 135.875 99.960938 129.945312 101.296875 C 126.105469 102.15625 122.402344 103.5625 118.835938 105.207031 C 114.960938 106.953125 110.949219 109.285156 108.6875 112.917969 C 107.722656 111.679688 106.695312 110.019531 104.742188 108.941406 C 101.664062 107.160156 98.5 108.863281 98.570312 111.167969 C 98.570312 114.503906 103.375 113.742188 104.8125 120.082031 C 102.480469 122.273438 98.707031 122.101562 95.554688 121.449219 C 64.621094 115.132812 50.777344 83.664062 66.480469 59.484375 C 68.261719 56.710938 73.132812 54.3125 71.109375 50.710938 C 69.703125 48.277344 64.695312 45.914062 66.582031 42.519531 C 67.371094 41.046875 69.429688 40.839844 71.109375 41.183594 C 72.753906 41.527344 74.398438 42.246094 76.078125 41.902344 C 78.171875 41.492188 79.644531 39.503906 80.46875 37.515625 C 81.289062 35.527344 81.769531 33.335938 83.039062 31.585938 C 84.308594 29.839844 86.777344 28.640625 88.664062 29.667969 C 90.753906 30.765625 90.960938 33.679688 90.515625 36.007812 C 90.101562 38.339844 89.382812 40.875 90.515625 42.964844 C 98.125 36.589844 109.988281 37.175781 118.355469 42.519531 C 126.753906 47.832031 132.035156 56.984375 135.019531 66.476562 C 136.972656 72.714844 138.414062 79.773438 143.660156 83.75 C 145.132812 84.882812 146.949219 85.738281 148.5625 86.835938 C 147.839844 87.488281 147.363281 88.445312 147.636719 89.335938 C 148.25 91.359375 151.269531 91.40625 151.957031 91.632812 Z M 151.957031 91.632812 " fill-opacity="1" fill-rule="nonzero"/><path fill="#f1822f" d="M 177.980469 104.039062 C 176.574219 105.375 174.585938 105.855469 172.699219 106.335938 C 174.035156 106.886719 174.6875 108.597656 174.277344 110.003906 C 173.609375 112.277344 170.75 113.863281 166.871094 112.507812 C 166.597656 114.117188 166.289062 115.796875 165.292969 117.097656 C 164.332031 118.402344 162.480469 119.222656 161.007812 118.503906 C 158.601562 117.25 158.714844 113.445312 158.847656 111.101562 C 159.019531 108.359375 159.15625 105.546875 159.535156 102.804688 C 160.136719 98.25 152.992188 95.035156 148.011719 94.101562 C 147.222656 93.964844 146.46875 93.863281 145.75 93.585938 L 145.714844 93.585938 C 145.679688 93.585938 145.679688 93.554688 145.648438 93.554688 C 143.222656 92.5625 143.511719 89.878906 145.613281 88.960938 C 146.746094 88.445312 148.011719 88.515625 149.214844 88.652344 C 153.085938 89.164062 156.894531 90.46875 160.183594 92.523438 C 161.417969 93.3125 162.515625 94.683594 163.855469 95.300781 C 166.222656 96.089844 167.628906 95.277344 175.714844 97.359375 C 176.8125 97.632812 178.011719 97.972656 178.769531 98.832031 C 180.003906 100.304688 179.386719 102.738281 177.980469 104.039062 Z M 177.980469 104.039062 " fill-opacity="1" fill-rule="nonzero"/><path fill="#f1822f" d="M 126.753906 140.539062 C 125.351562 140.988281 123.839844 140.679688 122.402344 140.335938 C 125.277344 144.171875 121.847656 149.03125 117.15625 146.402344 C 115.75 145.613281 114.6875 144.34375 113.625 143.113281 C 113.28125 144.34375 112.902344 145.613281 112.046875 146.539062 C 111.15625 147.464844 109.613281 147.839844 108.617188 147.054688 C 107.691406 146.332031 107.589844 144.996094 107.625 143.832031 C 108.078125 130.21875 111.09375 129.769531 109.953125 122.035156 C 108.914062 114.988281 103.542969 115.703125 103.542969 112.265625 C 103.460938 109.453125 108.023438 107.464844 112.011719 111.921875 C 113.347656 113.253906 115.78125 116.828125 116.847656 120.148438 C 117.804688 123.125 117.449219 126.203125 119.453125 128.683594 C 121.476562 131.253906 123.976562 133.480469 126.753906 135.230469 C 127.542969 135.742188 128.433594 136.292969 128.777344 137.183594 C 129.292969 138.554688 128.125 140.097656 126.753906 140.539062 Z M 126.753906 140.539062 " fill-opacity="1" fill-rule="nonzero"/><path fill="#000000" d="M 145.75 93.585938 C 140.566406 94.371094 136.246094 91.96875 122.46875 98.386719 C 118.355469 100.234375 113.382812 103.011719 110.914062 107.914062 C 110.207031 109.484375 110.160156 109.832031 109.988281 110.175781 C 110.777344 110.65625 111.429688 111.273438 112.011719 111.921875 C 113.710938 108.105469 114.457031 104.832031 123.53125 100.714844 C 127.441406 98.898438 131.007812 97.632812 134.367188 96.878906 C 139.347656 95.71875 146.109375 97.117188 151.304688 94.957031 C 148.9375 94.144531 146.785156 93.980469 145.75 93.585938 Z M 145.75 93.585938 " fill-opacity="1" fill-rule="nonzero"/><path fill="#000000" d="M 118.179688 96.710938 C 117.898438 98.394531 120.445312 98.800781 120.71875 97.132812 C 122.894531 84.003906 119.144531 70.027344 110.683594 59.753906 C 109.617188 58.445312 107.613281 60.066406 108.703125 61.386719 C 116.695312 71.097656 120.238281 84.304688 118.179688 96.710938 Z M 118.179688 96.710938 " fill-opacity="1" fill-rule="nonzero"/><path fill="#000000" d="M 225.515625 124.257812 C 221.980469 119.226562 215.167969 119.011719 212.09375 114.742188 C 208.1875 109.316406 213.242188 101.714844 214.882812 95.644531 C 224.136719 61.726562 166.097656 37.035156 135.410156 49.019531 C 132.550781 44.054688 128.632812 39.210938 123.191406 35.746094 C 114.363281 30.140625 102.984375 29.988281 95.363281 35.171875 C 95.246094 33.90625 95.589844 32.359375 95.925781 30.59375 C 97.542969 22.117188 90.054688 19.828125 86.148438 25.175781 C 83.839844 28.355469 83.597656 34.285156 79.996094 34.984375 C 78.648438 35.238281 77.101562 34.59375 75.511719 34.269531 C 73.382812 33.835938 70.730469 34.136719 69.605469 36.242188 C 67.164062 40.636719 72.90625 43.554688 74.132812 45.6875 C 75.570312 48.242188 71.566406 49.9375 69.277344 53.570312 C 63.085938 53.71875 55.761719 53.75 50.191406 55.585938 C 32.730469 61.363281 35.253906 74.488281 32.886719 81.667969 C 29.058594 93.316406 15.972656 98.617188 9.164062 109.019531 C 1.5 120.714844 6.179688 136.121094 14.222656 146.199219 C 29.074219 164.828125 51.382812 167.089844 75.132812 167.089844 C 101.640625 167.089844 176.816406 162.734375 202.140625 153.597656 C 209.214844 151.046875 216.476562 147.933594 221.664062 142.488281 C 225.515625 138.441406 229.722656 130.246094 225.515625 124.257812 Z M 219.800781 140.714844 C 214.980469 145.773438 208.046875 148.734375 201.269531 151.183594 C 181.46875 158.316406 132.761719 162.199219 111.554688 163.132812 C 90.949219 164.042969 69.296875 165.9375 48.859375 162.703125 C 15.683594 157.445312 0.40625 127.078125 11.3125 110.425781 C 17.867188 100.417969 31.210938 94.992188 35.328125 82.46875 C 37.964844 74.480469 35.136719 63.269531 50.996094 58.03125 C 55.929688 56.402344 62.527344 56.304688 67.773438 56.179688 C 52.628906 84.84375 75.027344 115.027344 102.324219 117.460938 C 104.113281 120.089844 104.273438 124.929688 103.640625 127.285156 C 102.292969 132.304688 101.53125 137.488281 101.375 142.683594 C 101.1875 149.175781 107.210938 148.90625 109.164062 144.539062 C 114.625 150.183594 120.867188 146.265625 119.613281 140.9375 C 124.027344 141.207031 125.84375 137.886719 124.992188 135.621094 C 124 132.984375 120.179688 132.8125 115.480469 126.804688 C 113.699219 124.53125 114.097656 121.8125 113.089844 118.660156 C 111.902344 114.953125 108.617188 109.589844 105.375 107.800781 C 99.953125 104.796875 94.605469 110.066406 98.742188 114.242188 C 69.515625 107.472656 56.757812 77.527344 71.707031 54.496094 C 73.382812 51.925781 78.957031 49.015625 76.371094 44.414062 C 74.90625 41.882812 70.589844 39.769531 71.867188 37.472656 C 72.300781 36.648438 73.796875 36.539062 74.992188 36.785156 C 76.605469 37.125 78.457031 37.878906 80.472656 37.507812 C 85.792969 36.476562 86.167969 29.523438 88.230469 26.6875 C 89.160156 25.40625 90.992188 24.460938 92.199219 25.109375 C 93.640625 25.890625 93.765625 28.207031 93.394531 30.128906 C 92.507812 34.785156 92.601562 36.207031 93.53125 37.925781 C 93.914062 38.628906 94.855469 38.828125 95.488281 38.296875 C 103.105469 31.910156 114.496094 33.269531 121.8125 37.914062 C 130.917969 43.710938 135.667969 53.445312 138.722656 63.800781 C 140.421875 69.519531 142.171875 75.4375 147.027344 79.117188 C 149.722656 81.175781 153.582031 82.402344 154.585938 85.125 C 152.757812 84.789062 150.636719 84.367188 148.734375 85.230469 C 145.617188 86.648438 145.304688 90.703125 148.789062 92.183594 C 150.539062 92.921875 156.238281 93.042969 160.316406 96.8125 C 161.582031 97.984375 162.035156 98.9375 161.882812 100.101562 C 161.535156 102.785156 161.386719 105.539062 161.203125 108.472656 C 161.0625 110.613281 161.007812 112.539062 161.761719 114.40625 C 163.433594 118.5625 167.8125 118.226562 169.980469 115.3125 C 170.828125 114.167969 171.246094 112.824219 171.515625 111.566406 C 177.222656 112.722656 180.730469 108.117188 178.796875 104.449219 C 180.09375 104.035156 181.417969 103.441406 182.496094 102.441406 C 184.335938 100.734375 185.125 97.515625 183.375 95.460938 C 182.390625 94.296875 180.945312 93.863281 179.664062 93.546875 C 171.167969 91.457031 169.8125 92.21875 168.207031 91.640625 C 167.863281 91.507812 167.683594 91.4375 168.027344 91.570312 C 166.015625 90.664062 165.269531 88.023438 157.304688 85.761719 C 156.859375 80.839844 151.523438 79.320312 148.582031 77.070312 C 141.859375 71.980469 142.417969 62.566406 136.671875 51.296875 C 165.625 40.332031 221 63.453125 212.402344 94.96875 C 212.015625 96.390625 211.410156 97.941406 210.769531 99.589844 C 208.671875 104.976562 206.292969 111.082031 210.003906 116.242188 C 213.601562 121.238281 220.382812 121.421875 223.410156 125.738281 C 226.707031 130.425781 222.945312 137.414062 219.800781 140.714844 Z M 121.152344 135.28125 C 121.773438 135.667969 122.414062 136.074219 122.585938 136.53125 C 122.824219 137.148438 122.078125 137.992188 121.363281 138.226562 C 120.34375 138.550781 119.160156 138.332031 117.707031 138.003906 C 116.566406 137.726562 115.667969 139.070312 116.398438 140.035156 C 118.484375 142.769531 116.234375 146.125 112.808594 144.199219 C 111.589844 143.519531 110.601562 142.339844 109.640625 141.203125 C 108.976562 140.414062 107.699219 140.691406 107.417969 141.679688 C 107.132812 142.699219 106.804688 143.847656 106.132812 144.550781 C 105.632812 145.070312 104.800781 145.269531 104.417969 144.96875 C 103.945312 144.597656 103.921875 143.53125 103.945312 142.765625 C 104.097656 137.765625 104.832031 132.777344 106.125 127.953125 C 107.238281 123.792969 106.328125 117.289062 103.058594 114.394531 C 101.867188 113.347656 99.871094 112.417969 99.84375 111.132812 C 99.824219 110.429688 100.632812 109.496094 102.085938 109.496094 C 104.148438 109.496094 105.730469 111.121094 106.984375 112.757812 C 111.519531 118.671875 110.875 121.757812 111.828125 125.113281 L 111.828125 125.117188 C 112.960938 129.066406 117.707031 133.113281 121.152344 135.28125 Z M 175.839844 104.972656 C 176.523438 105.257812 176.929688 106.277344 176.6875 107.101562 C 176.246094 108.628906 174.160156 109.871094 170.941406 108.75 C 170.230469 108.484375 169.394531 108.933594 169.25 109.738281 C 169.003906 111.121094 168.726562 112.6875 167.917969 113.785156 C 167.304688 114.605469 166.089844 115.234375 165.226562 114.804688 C 163.515625 113.960938 163.648438 110.503906 163.769531 108.640625 C 163.945312 105.8125 164.097656 103.007812 164.433594 100.4375 C 165.152344 94.914062 157.445312 91.320312 151.867188 90.292969 C 149.28125 89.867188 149.003906 89.433594 148.875 88.984375 C 148.703125 88.390625 149.304688 87.289062 151.347656 87.289062 C 154.734375 87.289062 161.046875 89.148438 164.5 92.164062 C 165.246094 92.8125 166.019531 93.484375 166.96875 93.914062 C 166.972656 93.914062 166.972656 93.917969 166.976562 93.917969 C 167.433594 94.023438 167.597656 94.410156 170.445312 94.523438 C 172.75 94.617188 176.84375 95.5 179.050781 96.042969 C 179.976562 96.273438 180.925781 96.542969 181.414062 97.121094 C 182.179688 98.023438 181.695312 99.679688 180.746094 100.554688 C 178.378906 102.753906 175.203125 101.792969 175.054688 103.6875 C 175.011719 104.238281 175.324219 104.757812 175.839844 104.972656 Z M 175.839844 104.972656 " fill-opacity="1" fill-rule="nonzero"/><path fill="#000000" d="M 59.078125 135.484375 C 53.84375 134.105469 49.476562 127.730469 48.695312 120.324219 C 47.964844 113.371094 50.371094 105.730469 54.820312 100.859375 C 55.972656 99.605469 54.066406 97.871094 52.925781 99.128906 C 47.921875 104.597656 45.324219 112.824219 46.136719 120.589844 C 47.027344 129.023438 52.191406 136.328125 58.421875 137.96875 C 60.054688 138.414062 60.730469 135.917969 59.078125 135.484375 Z M 59.078125 135.484375 " fill-opacity="1" fill-rule="nonzero"/><path fill="#000000" d="M 39.535156 140.484375 C 35.445312 140.007812 31.621094 135.875 30.429688 130.667969 C 29.222656 125.355469 30.800781 119.167969 34.179688 115.957031 C 35.414062 114.785156 33.644531 112.921875 32.414062 114.09375 C 28.347656 117.949219 26.503906 125 27.925781 131.238281 C 29.371094 137.578125 34.019531 142.425781 39.234375 143.035156 C 40.921875 143.246094 41.222656 140.679688 39.535156 140.484375 Z M 39.535156 140.484375 " fill-opacity="1" fill-rule="nonzero"/><path fill="#000000" d="M 208.074219 128.765625 C 193.339844 140.8125 175.761719 147.367188 157.238281 147.71875 C 155.550781 147.75 155.574219 150.289062 157.261719 150.289062 C 159.890625 149.785156 184.691406 151.203125 209.703125 130.753906 C 211.027344 129.671875 209.375 127.683594 208.074219 128.765625 Z M 208.074219 128.765625 " fill-opacity="1" fill-rule="nonzero"/><path fill="#000000" d="M 186.402344 86.246094 C 184.792969 85.695312 183.964844 88.136719 185.578125 88.679688 C 191.40625 90.644531 196.074219 97.742188 196.683594 105.550781 C 197.300781 113.386719 193.789062 121.40625 188.332031 124.617188 C 186.875 125.476562 188.167969 127.699219 189.636719 126.832031 C 195.894531 123.148438 199.9375 114.113281 199.25 105.347656 C 198.5625 96.558594 193.160156 88.527344 186.402344 86.246094 Z M 186.402344 86.246094 " fill-opacity="1" fill-rule="nonzero"/><path fill="#000000" d="M 191.875 80.195312 C 192.84375 81.546875 194.972656 80.105469 193.972656 78.699219 C 184.695312 65.703125 171.089844 58.320312 157.335938 59 C 155.730469 59.085938 155.636719 61.632812 157.460938 61.570312 C 170.257812 60.964844 183.109375 67.917969 191.875 80.195312 Z M 191.875 80.195312 " fill-opacity="1" fill-rule="nonzero"/><path fill="#000000" d="M 125.421875 151.480469 C 117.742188 154.8125 109.394531 155.941406 101.296875 154.722656 C 99.589844 154.480469 99.246094 157.011719 100.914062 157.265625 C 109.238281 158.507812 118.074219 157.46875 126.449219 153.835938 C 128.007812 153.160156 126.980469 150.804688 125.421875 151.480469 Z M 125.421875 151.480469 " fill-opacity="1" fill-rule="nonzero"/><path fill="#000000" d="M 204.371094 165.730469 C 191.019531 176.691406 174.210938 183.765625 157.039062 185.652344 C 155.386719 185.832031 155.570312 188.335938 157.320312 188.210938 C 174.980469 186.265625 192.273438 178.988281 206.003906 167.71875 C 207.308594 166.644531 205.707031 164.660156 204.371094 165.730469 Z M 204.371094 165.730469 " fill-opacity="1" fill-rule="nonzero"/><path fill="#000000" d="M 208.839844 175.078125 C 205.367188 182.066406 200.144531 188.109375 193.730469 192.546875 C 192.335938 193.515625 193.792969 195.628906 195.199219 194.664062 C 201.964844 189.976562 207.480469 183.601562 211.144531 176.222656 C 211.902344 174.691406 209.59375 173.5625 208.839844 175.078125 Z M 208.839844 175.078125 " fill-opacity="1" fill-rule="nonzero"/><path fill="#000000" d="M 177.324219 13.917969 L 178.746094 20.75 C 179.097656 22.429688 181.222656 22.960938 182.324219 21.648438 L 186.167969 17.03125 L 192.898438 15.464844 C 194.597656 15.0625 195.054688 12.855469 193.636719 11.820312 L 188.546875 8.074219 L 187.8125 2.300781 C 187.574219 0.46875 185.253906 -0.121094 184.164062 1.277344 L 180.929688 5.386719 L 173.328125 7.238281 C 171.550781 7.636719 171.152344 10 172.675781 10.972656 Z M 182.734375 7.25 L 185.414062 3.84375 C 186.148438 8.40625 185.703125 9.121094 186.839844 10.007812 L 191.207031 13.222656 C 186.015625 14.546875 185.015625 14.351562 184.3125 15.238281 L 181.046875 19.167969 C 179.71875 13.65625 180.136719 12.679688 178.894531 11.867188 L 175.105469 9.46875 C 182.371094 7.640625 182.246094 7.851562 182.734375 7.25 Z M 182.734375 7.25 " fill-opacity="1" fill-rule="nonzero"/></svg>